<svg
  width="19"
  height="31"
  viewBox="45.877 0 19.123 30.9016"
  fill="none"
  xmlns="http://www.w3.org/2000/svg"
>
  <g clipPath="url(#clip0_3_21)">
    <path
      d="M55.5457 0.0368299H55.543C55.5213 0.0313736 55.5023 0.0218251 55.4819 0.0150048C55.467 0.0109126 55.4562 0.00545628 55.4399 0H55.4385C55.4223 0.00409221 55.4114 0.00954849 55.3965 0.0150048C55.3761 0.0218251 55.3544 0.0313736 55.3327 0.0368299C52.2224 1.14582 48.6293 2.35302 45.8771 3.56022V29.052L47.0395 29.6112C49.8324 27.6702 52.609 25.7686 55.3951 23.8917C55.41 23.8821 55.4236 23.8726 55.4385 23.863C55.4535 23.8726 55.4657 23.8835 55.4806 23.8917C58.268 25.7686 61.0433 27.6702 63.8362 29.6112L64.9986 29.052V3.55886C62.2464 2.35166 58.6533 1.14445 55.543 0.0354658L55.5457 0.0368299ZM62.3699 20.5033C62.0593 20.3096 61.7486 20.1159 61.4407 19.9209C59.4346 18.6618 57.4501 17.4096 55.4819 16.1588H55.4806C55.4657 16.167 55.4535 16.1765 55.4385 16.1847C55.4236 16.1765 55.4114 16.167 55.3965 16.1588H55.3938C53.4256 17.4096 51.4411 18.6618 49.4377 19.9209C49.1298 20.1159 48.8192 20.3096 48.5085 20.5033V13.3311C48.5085 12.78 48.5248 12.2671 48.552 11.7869C48.5533 11.7692 48.5547 11.7501 48.556 11.7337C48.8436 7.27322 50.4889 5.60769 54.6301 2.95185L55.3951 2.50989L55.4385 2.48534L55.4806 2.50989L56.247 2.95185C60.3895 5.60769 62.0335 7.27322 62.3197 11.7351C62.321 11.7528 62.3224 11.7706 62.3238 11.7869C62.3509 12.2684 62.3672 12.78 62.3672 13.3311V20.5033H62.3699Z"
      fill="#4CAF50"
    />
  </g>
  <defs>
    <clipPath id="clip0_3_21">
      <rect width="65" height="30.9016" fill="white" />
    </clipPath>
  </defs>
</svg>